<?xml version="1.0" encoding="UTF-8" standalone="no"?>
<!-- Generator: Adobe Illustrator 14.0.0, SVG Export Plug-In . SVG Version: 6.00 Build 43363)  -->

<svg
   xmlns:dc="http://purl.org/dc/elements/1.1/"
   xmlns:cc="http://creativecommons.org/ns#"
   xmlns:rdf="http://www.w3.org/1999/02/22-rdf-syntax-ns#"
   xmlns:svg="http://www.w3.org/2000/svg"
   xmlns="http://www.w3.org/2000/svg"
   xmlns:sodipodi="http://sodipodi.sourceforge.net/DTD/sodipodi-0.dtd"
   xmlns:inkscape="http://www.inkscape.org/namespaces/inkscape"
   version="1.1"
   id="svg2"
   sodipodi:version="0.32"
   inkscape:version="0.91 r13725"
   sodipodi:modified="true"
   sodipodi:docname="DLlogo5.svg"
   inkscape:output_extension="org.inkscape.output.svg.inkscape"
   x="0px"
   y="0px"
   width="408.641px"
   height="408.598px"
   viewBox="0 0 408.641 408.598"
   enable-background="new 0 0 408.641 408.598"
   xml:space="preserve"><metadata
     id="metadata3774"><rdf:RDF><cc:Work
         rdf:about=""><dc:format>image/svg+xml</dc:format><dc:type
           rdf:resource="http://purl.org/dc/dcmitype/StillImage" /><dc:title></dc:title></cc:Work></rdf:RDF></metadata><defs
     id="defs3772"><inkscape:path-effect
       effect="powerstroke"
       id="path-effect3961"
       is_visible="true"
       offset_points="0,0.5"
       sort_points="true"
       interpolator_type="CubicBezierJohan"
       interpolator_beta="0.2"
       start_linecap_type="zerowidth"
       linejoin_type="round"
       miter_limit="4"
       end_linecap_type="zerowidth"
       cusp_linecap_type="round" /><inkscape:path-effect
       effect="powerstroke"
       id="path-effect3936"
       is_visible="true"
       offset_points="0,0.5"
       sort_points="true"
       interpolator_type="CubicBezierJohan"
       interpolator_beta="0.2"
       start_linecap_type="zerowidth"
       linejoin_type="round"
       miter_limit="4"
       end_linecap_type="zerowidth"
       cusp_linecap_type="round" /></defs><sodipodi:namedview
     height="990px"
     width="765px"
     id="base"
     inkscape:window-y="67"
     inkscape:window-x="205"
     inkscape:window-height="964"
     inkscape:window-width="1280"
     inkscape:guide-bbox="true"
     inkscape:current-layer="svg2"
     inkscape:document-units="px"
     inkscape:pageshadow="2"
     inkscape:pageopacity="0.0"
     guidetolerance="23.8"
     showguides="true"
     gridtolerance="10000"
     borderopacity="1.0"
     bordercolor="#666666"
     inkscape:cy="61.142114"
     pagecolor="#ffffff"
     inkscape:cx="0.89035089"
     inkscape:zoom="1.0970869"
     objecttolerance="10"
     showgrid="false"
     inkscape:window-maximized="0" /><g
     id="layer1"
     transform="translate(-73.218748,-183.9403)"
     inkscape:groupmode="layer"
     inkscape:label="Layer 1"><g
       id="g20781"
       transform="matrix(0.43632745,0.5199948,-0.5199948,0.43632745,352.91659,1.3844933)"><path
         id="path2168"
         d="m 365.195,151.425 c -1.483,0 -2.964,0.02 -4.437,0.062 -163.557,2.375 -295.563,135.82 -295.563,299.938 0,164.305 132.31,297.859 296.126,299.937 -81.015,-2.054 -146.125,-68.431 -146.125,-149.938 0,-82.8 67.199,-149.999 149.999,-149.999 82.8,0 150.001,-67.201 150.001,-150.001 0,-82.8 -67.201,-149.999 -150.001,-149.999 z"
         inkscape:connector-curvature="0"
         style="fill:#ffffff;stroke:#000000;stroke-width:2;stroke-linecap:square;stroke-linejoin:round" /><path
         d="m 365.195,751.362 c 1.483,0 2.965,-0.019 4.438,-0.062 163.557,-2.375 295.562,-135.82 295.562,-299.938 0,-164.305 -132.308,-297.859 -296.124,-299.937 81.013,2.054 146.125,68.431 146.125,149.938 0,82.8 -67.201,149.999 -150.001,149.999 -82.8,0 -149.999,67.201 -149.999,150.001 0,82.8 67.199,149.999 149.999,149.999 z"
         id="path3763"
         inkscape:connector-curvature="0"
         style="stroke:#000000;stroke-width:2;stroke-linecap:square;stroke-linejoin:round" /></g></g><g
     id="layer2"
     transform="translate(-73.218748,-183.9403)"
     inkscape:groupmode="layer" /><g
     inkscape:groupmode="layer"
     id="layer3"
     inkscape:label="Layer 3"><path
       style="opacity:1;fill:#000000;fill-opacity:1"
       d="m 97.99333,166.74745 c 0.14729,-2.17771 0.69352,-7.77768 1.21385,-12.44437 0.52031,-4.66668 2.20367,-20.23166 3.74078,-34.58883 1.53711,-14.35719 2.8845,-26.649311 2.99422,-27.315821 l 0.19948,-1.21185 -1.48388,-0.12433 c -0.81613,-0.0684 -1.64656,-0.30502 -1.84542,-0.5258 -0.83946,-0.93231 0.99539,-1.32272 6.30061,-1.34064 12.04723,-0.0406 21.07604,0.064 21.43758,0.24847 0.77075,0.39327 -0.33456,1.50684 -1.70551,1.71825 -0.81545,0.12573 -1.41609,0.45142 -1.41427,0.76687 0.001,0.30157 1.0991,10.600441 2.43859,22.886411 4.70643,43.16754 6.04971,56.18701 5.81855,56.39515 -0.1284,0.11552 -2.12915,0.20784 -4.44628,0.2051 l -4.21296,-0.005 0.2589,-1.55838 0.25891,-1.55839 -3.64045,0.005 c -2.48518,0.003 -4.21481,0.31604 -5.45036,0.98532 -1.49915,0.8121 -1.94465,0.8451 -2.59473,0.19221 -0.99389,-0.99816 -3.12583,-0.90345 -4.34355,0.19301 -0.51539,0.46405 -1.33265,0.78597 -1.81615,0.71536 -0.48345,-0.071 -1.18147,0.14389 -1.55106,0.47669 -0.59535,0.53604 -9.76087,0.58237 -10.23865,0.0517 -0.1023,-0.11353 -0.0654,-1.98833 0.0818,-4.16607 z"
       id="path4418"
       inkscape:connector-curvature="0" /><path
       style="opacity:1;fill:#ffffff;fill-opacity:1"
       d="m 312.40493,236.96205 c -0.14729,2.17771 -0.69352,7.77768 -1.21385,12.44437 -0.52031,4.66668 -2.20367,20.23166 -3.74078,34.58883 -1.53711,14.35719 -2.8845,26.6493 -2.99422,27.31581 l -0.19948,1.21185 1.48388,0.12433 c 0.81613,0.0684 1.64656,0.30502 1.84542,0.5258 0.83946,0.93231 -0.99539,1.32272 -6.30061,1.34064 -12.04723,0.0406 -21.07604,-0.064 -21.43758,-0.24847 -0.77075,-0.39327 0.33456,-1.50684 1.70551,-1.71825 0.81545,-0.12573 1.41609,-0.45142 1.41427,-0.76687 -10e-4,-0.30157 -1.0991,-10.60043 -2.43859,-22.8864 -4.70643,-43.16754 -6.04971,-56.18701 -5.81855,-56.39515 0.1284,-0.11552 2.12915,-0.20784 4.44628,-0.2051 l 4.21296,0.005 -0.2589,1.55838 -0.25891,1.55839 3.64045,-0.005 c 2.48518,-0.003 4.21481,-0.31604 5.45036,-0.98532 1.49915,-0.8121 1.94465,-0.8451 2.59473,-0.19221 0.99389,0.99816 3.12583,0.90345 4.34355,-0.19301 0.51539,-0.46405 1.33265,-0.78597 1.81615,-0.71536 0.48345,0.071 1.18147,-0.14389 1.55106,-0.47669 0.59535,-0.53604 9.76087,-0.58237 10.23865,-0.0517 0.1023,0.11353 0.0654,1.98833 -0.0818,4.16607 z"
       id="path4418-1"
       inkscape:connector-curvature="0" /><path
       style="opacity:1;fill:#000000;fill-opacity:1"
       d="m 97.99333,166.74745 c 0.14729,-2.17771 0.69352,-7.77768 1.21385,-12.44437 0.52031,-4.66668 2.20367,-20.23166 3.74078,-34.58883 1.53711,-14.35719 2.8845,-26.649306 2.99422,-27.315816 l 0.19948,-1.21185 -1.48388,-0.12433 c -0.81613,-0.0684 -1.64656,-0.30502 -1.84542,-0.5258 -0.83946,-0.93231 0.99539,-1.32272 6.30061,-1.34064 12.04723,-0.0406 21.07604,0.064 21.43758,0.24847 0.77075,0.39327 -0.33456,1.50684 -1.70551,1.71825 -0.81545,0.12573 -1.41609,0.45142 -1.41427,0.76687 0.001,0.30157 1.0991,10.600436 2.43859,22.886406 4.70643,43.16754 6.04971,56.18701 5.81855,56.39515 -0.1284,0.11552 -2.12915,0.20784 -4.44628,0.2051 l -4.21296,-0.005 0.2589,-1.55838 0.25891,-1.55839 -3.64045,0.005 c -2.48518,0.003 -4.21481,0.31604 -5.45036,0.98532 -1.49915,0.8121 -1.94465,0.8451 -2.59473,0.19221 -0.99389,-0.99816 -3.12583,-0.90345 -4.34355,0.19301 -0.51539,0.46405 -1.33265,0.78597 -1.81615,0.71536 -0.48345,-0.071 -1.18147,0.14389 -1.55106,0.47669 -0.59535,0.53604 -9.76087,0.58237 -10.23865,0.0517 -0.1023,-0.11353 -0.0654,-1.98833 0.0818,-4.16607 z"
       id="path4418-13"
       inkscape:connector-curvature="0" /><path
       style="opacity:1;fill:#000000;fill-opacity:1"
       d="m 103.80506,72.508493 c 0.52375,-0.600099 6.0195,-4.784554 7.26978,-5.535232 0.4379,-0.262864 1.7942,-1.208528 3.01404,-2.101435 1.21984,-0.892928 2.4191,-1.615592 2.66499,-1.605991 0.56749,0.02217 12.8602,8.972744 12.84047,9.349404 -0.008,0.154024 -0.77487,0.275431 -1.70398,0.269821 -0.92909,-0.0056 -5.95193,0.0064 -11.16182,0.02671 -12.06973,0.04704 -13.28344,0.0092 -12.92347,-0.403275 z"
       id="path4422"
       inkscape:connector-curvature="0" /><path
       style="opacity:1;fill:#ffffff;fill-opacity:1"
       d="m 306.37412,328.97217 c -0.52375,0.65672 -6.0195,5.23594 -7.26978,6.05744 -0.4379,0.28766 -1.7942,1.32254 -3.01404,2.29968 -1.21984,0.97717 -2.4191,1.76801 -2.66499,1.75751 -0.56749,-0.0243 -12.8602,-9.81925 -12.84047,-10.23144 0.008,-0.16856 0.77487,-0.30142 1.70398,-0.29528 0.92909,0.006 5.95193,-0.007 11.16182,-0.0292 12.06973,-0.0515 13.28344,-0.0101 12.92347,0.44132 z"
       id="path4422-0"
       inkscape:connector-curvature="0" /><path
       style="fill:#000000;fill-rule:evenodd;stroke:none;stroke-width:1px;stroke-linecap:butt;stroke-linejoin:miter;stroke-opacity:1"
       d="m 101.19174,157.52244 30.91197,-1.15871 0.976,0.65893 -0.73473,-1.08829 a 0.15287601,0.23693609 78.826717 0 0 -0.18413,-0.0731 l -30.99851,0.66162 z"
       id="path3959"
       inkscape:path-effect="#path-effect3961"
       inkscape:original-d="m 101.17704,157.02266 30.99116,-0.91151 0.91151,0.91151 0,0"
       inkscape:connector-curvature="0" /><path
       style="fill:#ffffff;fill-rule:evenodd;stroke:#ffffff;stroke-width:1px;stroke-linecap:butt;stroke-linejoin:miter;stroke-opacity:1"
       d="m 99.354027,157.02266 33.725683,0"
       id="path3967"
       inkscape:connector-curvature="0" /><path
       style="fill:none;fill-rule:evenodd;stroke:#ffffff;stroke-width:1px;stroke-linecap:butt;stroke-linejoin:miter;stroke-opacity:1"
       d="m 102.08854,141.52708 30.99117,0"
       id="path3969"
       inkscape:connector-curvature="0" /><path
       style="fill:none;fill-rule:evenodd;stroke:#ffffff;stroke-width:1px;stroke-linecap:butt;stroke-linejoin:miter;stroke-opacity:1"
       d="m 104.82306,123.29698 24.61063,0.9115"
       id="path3971"
       inkscape:connector-curvature="0" /><path
       style="fill:none;fill-rule:evenodd;stroke:#ffffff;stroke-width:1px;stroke-linecap:butt;stroke-linejoin:miter;stroke-opacity:1"
       d="m 106.64607,108.7129 20.96461,0"
       id="path3973"
       inkscape:connector-curvature="0" /><path
       style="fill:none;fill-rule:evenodd;stroke:#ffffff;stroke-width:1px;stroke-linecap:butt;stroke-linejoin:miter;stroke-opacity:1"
       d="m 117.58412,156.11115 0,-15.49558"
       id="path3975"
       inkscape:connector-curvature="0" /><path
       style="fill:none;fill-rule:evenodd;stroke:#ffffff;stroke-width:1px;stroke-linecap:butt;stroke-linejoin:miter;stroke-opacity:1"
       d="m 109.38058,139.70407 0,-16.40709"
       id="path3977"
       inkscape:connector-curvature="0" /><path
       style="fill:none;fill-rule:evenodd;stroke:#ffffff;stroke-width:1px;stroke-linecap:butt;stroke-linejoin:miter;stroke-opacity:1"
       d="m 125.78767,140.61557 -0.91151,-16.40709"
       id="path3979"
       inkscape:connector-curvature="0" /><path
       style="fill:none;fill-rule:evenodd;stroke:#ffffff;stroke-width:1px;stroke-linecap:butt;stroke-linejoin:miter;stroke-opacity:1"
       d="m 117.58412,122.38548 0,-14.58408"
       id="path3981"
       inkscape:connector-curvature="0" /><path
       style="fill:#ffffff;fill-rule:evenodd;stroke:#000000;stroke-width:1px;stroke-linecap:butt;stroke-linejoin:miter;stroke-opacity:1"
       d="m 111.20359,105.97839 0,-17.318594"
       id="path3983"
       inkscape:connector-curvature="0" /><path
       style="fill:none;fill-rule:evenodd;stroke:#ffffff;stroke-width:1px;stroke-linecap:butt;stroke-linejoin:miter;stroke-opacity:1"
       d="m 123.05315,107.8014 0,-17.318594"
       id="path3985"
       inkscape:connector-curvature="0" /><path
       style="fill:none;fill-rule:evenodd;stroke:#000000;stroke-width:1px;stroke-linecap:butt;stroke-linejoin:miter;stroke-opacity:1"
       d="M 113.0266,108.7129 112.11509,89.571301"
       id="path3987"
       inkscape:connector-curvature="0" /><path
       style="fill:none;fill-rule:evenodd;stroke:#ffffff;stroke-width:1px;stroke-linecap:butt;stroke-linejoin:miter;stroke-opacity:1"
       d="M 112.11509,107.8014 113.0266,88.659796"
       id="path3989"
       inkscape:connector-curvature="0" /><path
       style="fill:none;fill-rule:evenodd;stroke:#000000;stroke-width:1px;stroke-linecap:butt;stroke-linejoin:miter;stroke-opacity:1"
       d="m 107.55757,87.748292 -0.9115,-14.584078"
       id="path3991"
       inkscape:connector-curvature="0" /><path
       style="fill:none;fill-rule:evenodd;stroke:#000000;stroke-width:1px;stroke-linecap:butt;stroke-linejoin:miter;stroke-opacity:1"
       d="m 125.78767,87.748292 0.9115,-13.672573"
       id="path3993"
       inkscape:connector-curvature="0" /><path
       style="fill:none;fill-rule:evenodd;stroke:#000000;stroke-width:1px;stroke-linecap:butt;stroke-linejoin:miter;stroke-opacity:1"
       d="m 277.09747,251.81916 32.81417,0"
       id="path3995"
       inkscape:connector-curvature="0" /><path
       style="fill:none;fill-rule:evenodd;stroke:#000000;stroke-width:1px;stroke-linecap:butt;stroke-linejoin:miter;stroke-opacity:1"
       d="m 280.74349,269.13775 27.34514,0.91151"
       id="path4003"
       inkscape:connector-curvature="0" /><path
       style="fill:none;fill-rule:evenodd;stroke:#000000;stroke-width:1px;stroke-linecap:butt;stroke-linejoin:miter;stroke-opacity:1"
       d="m 281.65499,289.19086 22.78762,0"
       id="path4005"
       inkscape:connector-curvature="0" /><path
       style="fill:none;fill-rule:evenodd;stroke:#000000;stroke-width:1px;stroke-linecap:butt;stroke-linejoin:miter;stroke-opacity:1"
       d="m 282.5665,304.68644 19.1416,0"
       id="path4007"
       inkscape:connector-curvature="0" /><path
       style="fill:none;fill-rule:evenodd;stroke:#000000;stroke-width:1px;stroke-linecap:butt;stroke-linejoin:miter;stroke-opacity:1"
       d="m 297.15057,251.81916 0,16.40709"
       id="path4011"
       inkscape:connector-curvature="0" /><path
       style="fill:none;fill-rule:evenodd;stroke:#000000;stroke-width:1px;stroke-linecap:butt;stroke-linejoin:miter;stroke-opacity:1"
       d="m 284.38951,251.81916 0,16.40709"
       id="path4013"
       inkscape:connector-curvature="0" /><path
       style="fill:none;fill-rule:evenodd;stroke:#000000;stroke-width:1px;stroke-linecap:butt;stroke-linejoin:miter;stroke-opacity:1"
       d="m 290.77004,268.22625 0,19.1416"
       id="path4015"
       inkscape:connector-curvature="0" /><path
       style="fill:none;fill-rule:evenodd;stroke:#000000;stroke-width:1px;stroke-linecap:butt;stroke-linejoin:miter;stroke-opacity:1"
       d="m 286.21252,289.19086 0,13.67257"
       id="path4019"
       inkscape:connector-curvature="0" /><path
       style="fill:none;fill-rule:evenodd;stroke:#000000;stroke-width:1px;stroke-linecap:butt;stroke-linejoin:miter;stroke-opacity:1"
       d="m 298.06208,288.27935 0,15.49559"
       id="path4021"
       inkscape:connector-curvature="0" /><path
       style="fill:none;fill-rule:evenodd;stroke:#000000;stroke-width:1px;stroke-linecap:butt;stroke-linejoin:miter;stroke-opacity:1"
       d="m 291.68155,304.68644 0,10.02655"
       id="path4023"
       inkscape:connector-curvature="0" /><path
       style="fill:none;fill-rule:evenodd;stroke:#ffffff;stroke-width:1px;stroke-linecap:butt;stroke-linejoin:miter;stroke-opacity:1"
       d="m 302.6196,314.71299 1.82301,14.58408"
       id="path4025"
       inkscape:connector-curvature="0" /><path
       style="fill:none;fill-rule:evenodd;stroke:#ffffff;stroke-width:1px;stroke-linecap:butt;stroke-linejoin:miter;stroke-opacity:1"
       d="m 284.38951,315.6245 -2.73452,12.76107"
       id="path4027"
       inkscape:connector-curvature="0" /></g><g
     inkscape:groupmode="layer"
     id="layer4"
     inkscape:label="Layer 4"><path
       style="fill:#ffff00;fill-rule:evenodd;stroke:none;stroke-width:1px;stroke-linecap:butt;stroke-linejoin:miter;stroke-opacity:1"
       d="M 126.78496,80.948839 288.44213,52.795061 287.5422,162.58735 126.92779,80.01158 Z m -0.31441,-0.04791 161.33636,82.946934 a 0.5,0.5 0 0 0 0.7286,-0.44057 l 0.9115,-111.203572 a 0.50001403,0.49999988 85.295262 0 0 -0.58577,-0.496701 l -162.24786,28.25665 z"
       id="path3934"
       inkscape:path-effect="#path-effect3936"
       inkscape:original-d="m 126.69917,80.456253 162.24786,-28.25665 -0.9115,111.203587 z"
       inkscape:connector-curvature="0" /><path
       style="fill:#ffff00"
       d="M 193.53325,114.00491 C 138.99267,85.879993 129.79417,80.857516 132.00668,80.410747 138.05933,79.18854 266.22919,57.050439 267.25259,57.050439 c 0.61773,0 -0.54414,1.808794 -2.58193,4.019542 -7.33836,7.96118 -11.50732,19.862685 -12.81877,36.594898 -1.35176,17.246531 1.24122,38.056191 5.85329,46.974951 0.75358,1.45727 1.05198,2.60106 0.66312,2.54176 -0.38887,-0.0593 -29.56465,-14.98881 -64.83505,-33.17668 z"
       id="path3938"
       inkscape:connector-curvature="0" /><path
       style="fill:#ffff00"
       d="m 229.89841,275.89795 c 47.57511,38.94883 55.59884,45.82072 53.6689,45.96442 -5.27965,0.39316 -117.08074,4.65474 -117.97344,4.49685 -0.53884,-0.0953 0.47465,-1.8798 2.25219,-3.96558 6.40117,-7.51118 10.0377,-19.78923 11.18167,-37.75272 1.17912,-18.51565 -1.0827,-41.50829 -5.10577,-51.90273 -0.65733,-1.69838 -0.91763,-2.98621 -0.57843,-2.86183 0.33922,0.12436 25.78891,20.83409 56.55488,46.02159 z"
       id="path3938-0"
       inkscape:connector-curvature="0" /><ellipse
       style="fill:#ffff00"
       id="path3955"
       cx="170.04358"
       cy="247.94154"
       rx="20.229824"
       ry="49.63332"
       transform="matrix(0.98564904,0.16880752,0,1,0,0)" /><path
       style="fill:#ffff00;stroke:#ffffff;stroke-width:0.91150481"
       d="m 272.93996,154.69287 c -15.31736,-8.05118 -15.33501,-8.07184 -18.52613,-21.68147 -1.3394,-5.71235 -1.67396,-10.88349 -1.67101,-25.82819 0.003,-16.694555 0.22351,-19.44577 2.0664,-25.816741 2.54659,-8.803648 4.78761,-13.283926 9.91915,-19.83051 3.98584,-5.084939 3.98658,-5.085358 11.03826,-6.199946 3.87869,-0.613065 8.18015,-1.346289 9.5588,-1.629388 l 2.50664,-0.514724 -0.11121,41.807606 c -0.0612,22.994183 -0.36881,47.431423 -0.68363,54.304983 l -0.57242,12.49738 -13.52485,-7.109 z"
       id="path4269"
       inkscape:connector-curvature="0" /><path
       style="fill:#ffff00;stroke:#ffffff;stroke-width:0.91150481"
       d="m 275.071,154.93918 c -15.82859,-8.40759 -16.94975,-9.62425 -19.74939,-21.43176 -1.2764,-5.38319 -1.58583,-10.7324 -1.54912,-26.77997 0.0437,-19.114899 0.15772,-20.394266 2.43675,-27.345141 2.50744,-7.647527 5.68516,-13.338343 10.52798,-18.85401 2.49827,-2.845371 3.73255,-3.435825 9.03189,-4.320691 3.376,-0.563712 7.26616,-1.252541 8.64482,-1.53073 l 2.50663,-0.505799 0,36.386497 c 0,37.638154 -0.79754,69.503194 -1.73897,69.479094 -0.29688,-0.008 -4.84665,-2.30148 -10.11059,-5.09749 z"
       id="path4271"
       inkscape:connector-curvature="0" /><path
       style="fill:#ffff00;stroke:#ffffff;stroke-width:0.91150481"
       d="m 218.06389,126.22149 c -41.23366,-21.14577 -75.93896,-39.282896 -81.91166,-42.807335 -3.11137,-1.835997 -3.34124,-2.187696 -1.82301,-2.789203 1.52624,-0.604677 33.79393,-6.27759 108.24644,-19.030574 11.95656,-2.048041 22.07873,-3.600629 22.4937,-3.450195 0.41498,0.150433 -1.17612,3.144756 -3.53578,6.654049 -7.3883,10.987917 -10.08563,22.397192 -10.12819,42.840728 -0.0263,12.61899 1.81326,26.3565 4.46311,33.33035 1.01236,2.66431 1.73071,4.95413 1.59635,5.0885 -0.13438,0.13437 -17.8648,-8.79198 -39.40096,-19.83632 z"
       id="path4273"
       inkscape:connector-curvature="0" /></g><rect
     x="-81.18"
     y="235.799"
     fill="none"
     width="70"
     height="177"
     id="rect3766" /><text
     font-size="150"
     id="text3768"
     x="235.2079"
     y="160.02283"
     style="font-size:150px;font-family:OCRAExtended">0</text>
<text
     font-size="150"
     id="text3770"
     x="65.51329"
     y="342.6329"
     style="font-size:129.06889343px;font-family:OCRAExtended;fill:#ffffff"
     transform="scale(1.064555,0.93935964)">1</text>
<path
     style="fill:#ffff00;stroke:#ffffff;stroke-width:0.91150481"
     d="m 277.84851,149.746 c -11.11007,-3.54183 -17.16564,-21.53753 -16.16275,-48.03182 0.55697,-14.714039 2.43416,-23.605149 6.37016,-30.171569 4.71875,-7.87227 10.72827,-10.81501 19.42317,-9.51112 8.28181,1.24193 14.42189,9.59772 17.34959,23.61039 1.82304,8.72548 1.82304,32.534169 0,41.259649 -3.90488,18.68969 -13.78132,27.05219 -26.98017,22.84447 z"
     id="path4275"
     inkscape:connector-curvature="0" /></svg>