<?xml version="1.0" encoding="UTF-8" standalone="no"?>
<!-- Generator: Adobe Illustrator 14.0.0, SVG Export Plug-In . SVG Version: 6.00 Build 43363)  -->

<svg
   xmlns:dc="http://purl.org/dc/elements/1.1/"
   xmlns:cc="http://creativecommons.org/ns#"
   xmlns:rdf="http://www.w3.org/1999/02/22-rdf-syntax-ns#"
   xmlns:svg="http://www.w3.org/2000/svg"
   xmlns="http://www.w3.org/2000/svg"
   xmlns:sodipodi="http://sodipodi.sourceforge.net/DTD/sodipodi-0.dtd"
   xmlns:inkscape="http://www.inkscape.org/namespaces/inkscape"
   version="1.1"
   id="svg2"
   sodipodi:version="0.32"
   inkscape:version="0.91 r13725"
   sodipodi:modified="true"
   sodipodi:docname="DLlogo3.svg"
   inkscape:output_extension="org.inkscape.output.svg.inkscape"
   x="0px"
   y="0px"
   width="408.641px"
   height="408.598px"
   viewBox="0 0 408.641 408.598"
   enable-background="new 0 0 408.641 408.598"
   xml:space="preserve"><metadata
     id="metadata3469"><rdf:RDF><cc:Work
         rdf:about=""><dc:format>image/svg+xml</dc:format><dc:type
           rdf:resource="http://purl.org/dc/dcmitype/StillImage" /><dc:title></dc:title></cc:Work></rdf:RDF></metadata><defs
     id="defs3467"><inkscape:path-effect
       effect="powerstroke"
       id="path-effect4505"
       is_visible="true"
       offset_points="0,0.5"
       sort_points="true"
       interpolator_type="CubicBezierJohan"
       interpolator_beta="0.2"
       start_linecap_type="zerowidth"
       linejoin_type="round"
       miter_limit="4"
       end_linecap_type="zerowidth"
       cusp_linecap_type="round" /><inkscape:perspective
       sodipodi:type="inkscape:persp3d"
       inkscape:vp_x="0 : 204.299 : 1"
       inkscape:vp_y="0 : 1000 : 0"
       inkscape:vp_z="408.641 : 204.299 : 1"
       inkscape:persp3d-origin="204.3205 : 136.19933 : 1"
       id="perspective4480" /><filter
       inkscape:label="Light Eraser"
       style="color-interpolation-filters:sRGB;"
       id="filter4356"><feColorMatrix
         values="1 0 0 0 0 0 1 0 0 0 0 0 1 0 0 -21.25 -71.54 -7.21 50 0 "
         result="colormatrix"
         id="feColorMatrix4358" /><feComposite
         in2="colormatrix"
         operator="arithmetic"
         k2="1"
         result="composite"
         id="feComposite4360" /></filter></defs><sodipodi:namedview
     height="990px"
     width="765px"
     id="base"
     inkscape:window-y="1"
     inkscape:window-x="0"
     inkscape:window-height="1075"
     inkscape:window-width="1920"
     inkscape:guide-bbox="true"
     inkscape:current-layer="svg2"
     inkscape:document-units="px"
     inkscape:pageshadow="2"
     inkscape:pageopacity="0.0"
     guidetolerance="23.8"
     showguides="true"
     gridtolerance="10000"
     borderopacity="1.0"
     bordercolor="#666666"
     inkscape:cy="160.87606"
     pagecolor="#ffffff"
     inkscape:cx="-31.821181"
     inkscape:zoom="2.1941738"
     objecttolerance="10"
     showgrid="false"
     inkscape:window-maximized="1" /><g
     id="layer1"
     transform="translate(-73.218748,-183.9403)"
     inkscape:groupmode="layer"
     inkscape:label="Layer 1"><g
       id="g20781"
       transform="matrix(0.678805,0,0,0.678805,29.642649,81.831276)"><path
         id="path2168"
         d="    M365.195,151.425c-1.483,0-2.964,0.02-4.437,0.062c-163.557,2.375-295.563,135.82-295.563,299.938    c0,164.305,132.31,297.859,296.126,299.937c-81.015-2.054-146.125-68.431-146.125-149.938c0-82.8,67.199-149.999,149.999-149.999    s150.001-67.201,150.001-150.001S447.995,151.425,365.195,151.425z"
         stroke-linejoin="round"
         stroke-linecap="square"
         stroke-width="2"
         stroke="#000000"
         fill="#FFFFFF" /><path
         d="M365.195,751.362    c1.483,0,2.965-0.019,4.438-0.062c163.557-2.375,295.562-135.82,295.562-299.938c0-164.305-132.308-297.859-296.124-299.937    c81.013,2.054,146.125,68.431,146.125,149.938c0,82.8-67.201,149.999-150.001,149.999s-149.999,67.201-149.999,150.001    S282.395,751.362,365.195,751.362z"
         id="path3458"
         stroke-linejoin="round"
         stroke-linecap="square"
         stroke-width="2"
         stroke="#000000" /></g><path
       style="opacity:1;fill:#000000"
       d="m 103.62322,280.03237 c -1.48606,-1.56664 -8.542846,-9.39959 -15.681765,-17.40654 -10.523178,-11.80272 -33.014148,-36.92469 -34.679311,-38.73612 -0.237475,-0.25833 -0.811389,-0.0334 -1.45331,0.56969 -1.212318,1.13892 -2.141486,1.29329 -2.141486,0.3558 0,-0.66555 5.311004,-6.80419 13.565212,-15.67915 3.401018,-3.65678 4.935031,-5.01255 5.280589,-4.66699 0.345558,0.34556 0.246134,0.89488 -0.342253,1.89094 -0.456114,0.77214 -0.65296,1.56749 -0.437436,1.76745 0.215524,0.19996 14.799334,10.75669 32.40847,23.4594 17.60913,12.70271 32.01538,23.23649 32.01388,23.4084 -0.006,0.66862 -24.88118,27.88558 -25.48646,27.88558 -0.18932,0 -1.56008,-1.28181 -3.04613,-2.84846 z"
       id="path4372"
       inkscape:connector-curvature="0"
       transform="translate(73.218748,183.9403)" /><path
       style="opacity:1;fill:#000000"
       d="m 37.308062,212.45672 c -0.09555,-0.78851 0.472364,-7.67406 0.750945,-9.10469 0.09762,-0.50133 0.302424,-2.14204 0.455117,-3.64602 0.152693,-1.50398 0.417388,-2.87657 0.58821,-3.05019 0.170821,-0.17362 1.172192,-0.50848 2.225266,-0.74412 1.637285,-0.36637 2.028053,-0.30317 2.697206,0.43624 0.430388,0.47557 1.78528,1.44362 3.010871,2.15121 l 2.228346,1.28652 -4.864291,5.4292 c -6.314223,7.04752 -7.027016,7.7754 -7.09167,7.24185 z"
       id="path4376"
       inkscape:connector-curvature="0"
       transform="translate(73.218748,183.9403)" /><path
       style="opacity:1;fill:#000000;fill-opacity:1"
       d="m 103.61891,280.03237 c -1.5198,-1.56664 -5.315884,-5.71969 -8.435741,-9.22898 -3.119862,-3.5093 -13.560512,-15.17527 -23.201447,-25.9244 -9.640936,-10.74912 -17.874169,-19.97546 -18.296075,-20.50298 l -0.767102,-0.95912 -1.085282,1.01956 c -0.596905,0.56077 -1.328424,1.01957 -1.625598,1.01957 -1.254552,0 -0.31693,-1.62481 3.219641,-5.57933 8.030963,-8.98005 14.150181,-15.61975 14.529185,-15.76499 0.807994,-0.30963 0.895947,1.25691 0.135712,2.41718 -0.452207,0.69015 -0.612076,1.35442 -0.376445,1.56415 0.225259,0.2005 8.613106,6.27629 18.63966,13.50176 35.228952,25.38717 45.803122,33.10064 45.803122,33.41171 0,0.17268 -1.27022,1.72134 -2.82271,3.44148 l -2.8227,3.12752 -0.98488,-1.23516 -0.98488,-1.23515 -2.43229,2.70866 c -1.66043,1.8491 -2.5854,3.34369 -2.91477,4.70972 -0.39963,1.65748 -0.67321,2.01064 -1.59337,2.05687 -1.40683,0.0707 -2.763,1.71841 -2.763,3.35702 0,0.69352 -0.30763,1.51627 -0.68363,1.82832 -0.37599,0.31205 -0.68362,0.97428 -0.68362,1.47163 0,0.80112 -6.09851,7.64342 -6.81254,7.64342 -0.15288,0 -1.52143,-1.28181 -3.04124,-2.84846 z"
       id="path4416"
       inkscape:connector-curvature="0"
       transform="translate(73.218748,183.9403)" /><path
       style="opacity:1;fill:#000000;fill-opacity:1"
       d="m 103.61891,280.03237 c -1.5198,-1.56664 -5.315884,-5.71969 -8.435741,-9.22898 -3.119862,-3.5093 -13.560512,-15.17527 -23.201447,-25.9244 -9.640936,-10.74912 -17.874169,-19.97546 -18.296075,-20.50298 l -0.767102,-0.95912 -1.085282,1.01956 c -0.596905,0.56077 -1.328424,1.01957 -1.625598,1.01957 -1.254552,0 -0.31693,-1.62481 3.219641,-5.57933 8.030963,-8.98005 14.150181,-15.61975 14.529185,-15.76499 0.807994,-0.30963 0.895947,1.25691 0.135712,2.41718 -0.452207,0.69015 -0.612076,1.35442 -0.376445,1.56415 0.225259,0.2005 8.613106,6.27629 18.63966,13.50176 35.228952,25.38717 45.803122,33.10064 45.803122,33.41171 0,0.17268 -1.27022,1.72134 -2.82271,3.44148 l -2.8227,3.12752 -0.98488,-1.23516 -0.98488,-1.23515 -2.43229,2.70866 c -1.66043,1.8491 -2.5854,3.34369 -2.91477,4.70972 -0.39963,1.65748 -0.67321,2.01064 -1.59337,2.05687 -1.40683,0.0707 -2.763,1.71841 -2.763,3.35702 0,0.69352 -0.30763,1.51627 -0.68363,1.82832 -0.37599,0.31205 -0.68362,0.97428 -0.68362,1.47163 0,0.80112 -6.09851,7.64342 -6.81254,7.64342 -0.15288,0 -1.52143,-1.28181 -3.04124,-2.84846 z"
       id="path4418"
       inkscape:connector-curvature="0"
       transform="translate(73.218748,183.9403)" /><path
       style="opacity:1;fill:#000000;fill-opacity:1"
       d="m 37.308062,212.45831 c -0.09548,-0.79078 0.472211,-7.67486 0.750945,-9.10628 0.09762,-0.50133 0.302424,-2.14204 0.455117,-3.64602 0.152693,-1.50398 0.418074,-2.87876 0.589736,-3.05507 0.396186,-0.4069 15.273199,-3.55307 15.539911,-3.28636 0.109054,0.10906 -0.313793,0.76014 -0.93966,1.44685 -0.625866,0.68671 -3.977859,4.42744 -7.448873,8.31272 -8.041255,9.00101 -8.881554,9.87765 -8.947176,9.33416 z"
       id="path4422"
       inkscape:connector-curvature="0"
       transform="translate(73.218748,183.9403)" /><path
       style="opacity:1;fill:#ffffff;fill-opacity:1"
       d=""
       id="path4424"
       inkscape:connector-curvature="0"
       transform="translate(73.218748,183.9403)" /><path
       style="opacity:1;fill:#ffffff;fill-opacity:1"
       d="m 58.107116,202.59673 c -1.383243,-1.2642 -2.514986,-2.49398 -2.514986,-2.73283 0,-0.37989 1.304456,-2.51594 5.245381,-8.58931 4.453987,-6.86405 8.989969,-13.91067 10.499001,-16.31014 0.991147,-1.576 2.236856,-3.47675 2.768242,-4.2239 l 0.966157,-1.35845 6.895573,6.20526 c 3.792564,3.41288 6.895572,6.3694 6.895572,6.57002 0,0.20063 -2.307247,2.17485 -5.127215,4.38715 -2.819968,2.21231 -9.173958,7.24626 -14.119977,11.18657 l -8.992762,7.16419 -2.514986,-2.29856 z"
       id="path4426"
       inkscape:connector-curvature="0"
       transform="translate(73.218748,183.9403)" /><path
       style="opacity:1;fill:#ffffff;fill-opacity:1"
       d="m 58.107116,202.59673 c -1.383243,-1.2642 -2.514986,-2.49398 -2.514986,-2.73283 0,-0.37989 1.304456,-2.51594 5.245381,-8.58931 4.453987,-6.86405 8.989969,-13.91067 10.499001,-16.31014 0.991147,-1.576 2.236856,-3.47675 2.768242,-4.2239 l 0.966157,-1.35845 6.895573,6.20526 c 3.792564,3.41288 6.895572,6.3694 6.895572,6.57002 0,0.20063 -2.307247,2.17485 -5.127215,4.38715 -2.819968,2.21231 -9.173958,7.24626 -14.119977,11.18657 l -8.992762,7.16419 -2.514986,-2.29856 z"
       id="path4428"
       inkscape:connector-curvature="0"
       transform="translate(73.218748,183.9403)" /><path
       style="opacity:1;fill:#ffffff;fill-opacity:1"
       d="m 58.107116,202.59673 c -1.383243,-1.2642 -2.514986,-2.49398 -2.514986,-2.73283 0,-0.37989 1.304456,-2.51594 5.245381,-8.58931 4.453987,-6.86405 8.989969,-13.91067 10.499001,-16.31014 0.991147,-1.576 2.236856,-3.47675 2.768242,-4.2239 l 0.966157,-1.35845 6.895573,6.20526 c 3.792564,3.41288 6.895572,6.3694 6.895572,6.57002 0,0.20063 -2.307247,2.17485 -5.127215,4.38715 -2.819968,2.21231 -9.173958,7.24626 -14.119977,11.18657 l -8.992762,7.16419 -2.514986,-2.29856 z"
       id="path4430"
       inkscape:connector-curvature="0"
       transform="translate(73.218748,183.9403)" /><path
       style="opacity:1;fill:#ffffff;fill-opacity:1"
       d="m 58.107116,202.59673 c -1.383243,-1.2642 -2.514986,-2.49398 -2.514986,-2.73283 0,-0.37989 1.304456,-2.51594 5.245381,-8.58931 4.453987,-6.86405 8.989969,-13.91067 10.499001,-16.31014 0.991147,-1.576 2.236856,-3.47675 2.768242,-4.2239 l 0.966157,-1.35845 6.895573,6.20526 c 3.792564,3.41288 6.895572,6.3694 6.895572,6.57002 0,0.20063 -2.307247,2.17485 -5.127215,4.38715 -2.819968,2.21231 -9.173958,7.24626 -14.119977,11.18657 l -8.992762,7.16419 -2.514986,-2.29856 z"
       id="path4432"
       inkscape:connector-curvature="0"
       transform="translate(73.218748,183.9403)" /><path
       style="opacity:1;fill:#ffffff;fill-opacity:1"
       d="M 167.10313,403.64649 C 104.69194,392.0174 50.406875,350.7443 22.351009,293.59101 7.2677553,262.86454 0.55268771,230.78678 1.8691046,195.74931 3.3982947,155.0487 17.414652,115.7307 42.147433,82.762498 54.450347,66.363009 71.690399,49.72053 88.519599,37.997678 122.3188,14.453891 162.70629,1.6722357 203.25591,1.6864329 c 12.50392,0.00438 21.2752,1.3673755 32.55109,5.0582161 36.53094,11.957363 62.5318,43.091383 68.46843,81.985649 1.08585,7.114013 1.07822,20.626192 -0.0157,27.784652 -6.34775,41.53952 -36.02845,74.16885 -76.44861,84.04341 -6.55763,1.60201 -13.95533,2.46487 -25.69461,2.99696 -14.91453,0.67603 -25.00345,2.74962 -36.80819,7.56528 -15.92925,6.49822 -30.82591,17.67762 -41.26727,30.9696 -1.37868,1.75508 -2.65609,3.36211 -2.83868,3.57118 -0.22963,0.26293 -50.409441,-35.36077 -53.264174,-37.81337 -0.102904,-0.0884 0.153457,-0.53705 0.569691,-0.99699 0.416239,-0.45994 0.756795,-1.13799 0.756795,-1.50678 0,-0.71401 -0.860593,-1.76433 -1.445624,-1.76433 -0.193503,0 -4.466369,4.56322 -9.49526,10.14049 -9.230303,10.23683 -10.235793,11.77041 -7.932958,12.09943 0.523258,0.0748 1.214908,-0.1816 1.536997,-0.56969 0.32209,-0.38809 0.816864,-0.69024 1.099499,-0.67143 0.42312,0.0282 47.878344,52.75224 50.561824,56.17561 0.79983,1.02036 0.7964,1.21631 -0.10542,6.03414 -4.188046,22.37372 -1.13025,44.69957 8.8864,64.88226 12.04869,24.27705 31.86653,41.87121 57.8437,51.35328 4.73291,1.72759 3.81062,1.91215 -3.11073,0.62249 z M 36.140198,238.99389 c 3.21328,-5.06452 7.5644,-11.87437 9.669154,-15.133 2.104758,-3.25863 3.82907,-6.12987 3.831813,-6.38053 0.0027,-0.25067 -1.217907,-1.54427 -2.712547,-2.87468 -1.830353,-1.62923 -2.916844,-2.29877 -3.328067,-2.05088 -0.335798,0.20242 -6.906107,5.38098 -14.600688,11.50792 l -13.990145,11.1399 3.076031,2.76055 c 1.691818,1.51831 4.926563,4.44521 7.188324,6.50422 2.261761,2.05902 4.317381,3.74165 4.568045,3.73919 0.250664,-0.002 3.0848,-4.14817 6.29808,-9.21269 z M 46.286982,203.5455 c 4.741835,-5.28286 8.689882,-9.79481 8.773435,-10.02655 0.08356,-0.23174 -0.368225,-0.42135 -1.003954,-0.42135 -0.966259,0 -12.571229,2.3334 -14.905984,2.99714 -1.140727,0.32429 -2.719953,17.05597 -1.609834,17.05597 0.06865,0 4.004501,-4.32234 8.746337,-9.60521 z m 32.482441,-12.58369 c 2.595624,-2.08394 4.584737,-3.78899 4.420252,-3.78899 -0.322755,0 -19.319395,14.93898 -21.240852,16.70383 -0.945426,0.86837 -1.282638,0.96194 -1.801029,0.49977 -0.539866,-0.48131 -0.54781,-0.44939 -0.05175,0.2079 0.61677,0.81723 1.398554,0.24691 18.673375,-13.62251 z m -21.356389,11.02082 -2.014895,-2.05303 0.818631,-1.47905 0.818636,-1.47905 -0.939383,1.13938 c -0.516654,0.62666 -0.943936,1.33671 -0.94951,1.57788 -0.01021,0.44248 3.630697,4.3469 4.053544,4.3469 0.125332,0 -0.678829,-0.92387 -1.787023,-2.05303 z m 1.799848,-8.2014 c 0.86546,-1.53657 0.88416,-1.64872 0.11902,-0.71373 -1.244701,1.52099 -2.720427,4.13032 -1.821301,3.22037 0.37152,-0.376 1.137549,-1.50398 1.702281,-2.50664 z m 2.317615,-3.44352 c 0.692557,-1.29406 0.220169,-1.08289 -0.692074,0.30937 -0.430823,0.65752 -0.558059,1.05627 -0.282739,0.88612 0.275315,-0.17016 0.713981,-0.70813 0.974813,-1.19549 z m 2.323713,-3.84852 c 0.447499,-0.9115 0.447499,-0.9115 -0.294667,0 -0.40819,0.50133 -0.943539,1.32168 -1.189664,1.82301 -0.447499,0.91151 -0.447499,0.91151 0.294667,0 0.40819,-0.50133 0.943539,-1.32168 1.189664,-1.82301 z m 22.273331,-1.43571 c 0,-0.32968 -1.756456,0.73144 -2.081617,1.25756 -0.170155,0.27532 0.228601,0.14808 0.886124,-0.28274 0.657519,-0.43083 1.195493,-0.8695 1.195493,-0.97482 z m -20.553239,-1.26722 c -0.1199,-0.1199 -0.489515,0.23412 -0.821371,0.78671 -0.57649,0.95996 -0.566778,0.96967 0.218,0.218 0.451755,-0.43269 0.72327,-0.88481 0.603371,-1.00471 z m 22.146987,-3.33832 -1.804137,-1.70654 1.552152,1.69906 c 1.543023,1.68907 1.547088,1.70515 0.6918,2.73451 l -0.860346,1.03546 1.112336,-1.02798 1.112337,-1.02797 -1.804142,-1.70654 z m -20.823368,1.01592 c -0.140322,-0.14033 -0.395161,0.11262 -0.566309,0.56209 -0.247328,0.64954 -0.19498,0.70188 0.25513,0.25513 0.31147,-0.30916 0.4515,-0.6769 0.311179,-0.81722 z m 5.489045,-8.07755 c 0.579617,-0.93999 0.954605,-1.70907 0.833302,-1.70907 -0.286335,0 -5.778863,8.56024 -5.77766,9.00462 9.12e-4,0.32373 2.721371,-3.69044 4.944358,-7.29555 z m 12.829071,4.99183 c 0,-0.0745 -0.871627,-0.94608 -1.936948,-1.93694 l -1.936948,-1.80157 1.801567,1.93695 c 1.675437,1.80134 2.072329,2.14638 2.072329,1.80156 z m -4.557525,-4.10177 c 0,-0.0745 -0.871626,-0.94609 -1.936947,-1.93695 l -1.936948,-1.80156 1.801566,1.93694 c 1.675437,1.80135 2.072329,2.14638 2.072329,1.80157 z m -4.984691,-4.28043 c 0.509399,0.45174 0.511349,0.41004 0.01171,-0.25063 -0.687484,-0.90909 -1.198264,-0.7185 -1.886614,0.70399 l -0.483936,1.00006 0.873864,-0.99767 c 0.689462,-0.78714 1.002815,-0.88331 1.484951,-0.45575 l 2.3e-5,0 z m -1.997632,-20.30876 c 12.489435,-14.04839 14.796363,-16.77803 14.621946,-17.30128 -0.142732,-0.4282 -10.921582,-7.48694 -13.689818,-8.96504 -0.649196,-0.34664 -1.463694,-0.52152 -1.810002,-0.38863 -0.767907,0.29468 -14.14913,32.10942 -13.765938,32.72944 0.411097,0.66517 4.902971,3.61025 5.5064,3.61025 0.290069,0 4.401903,-4.35813 9.137412,-9.68474 z M 209.40857,138.09892 c 11.95556,-2.56843 21.20938,-12.46857 25.52712,-27.31003 2.28023,-7.83789 3.03551,-13.694282 3.28564,-25.476735 0.17763,-8.367186 0.0598,-12.420748 -0.50125,-17.246337 -2.64895,-22.783219 -11.28035,-36.366239 -26.18467,-41.206177 -4.77829,-1.551672 -13.28765,-1.926605 -18.79526,-0.828145 -4.80597,0.958523 -11.1908,4.005081 -14.47066,6.904757 -7.20203,6.367206 -11.76742,15.930881 -14.34207,30.044034 -0.88509,4.851721 -0.99771,7.03802 -0.99771,19.369478 0,12.32684 0.11308,14.523858 0.99888,19.407355 1.32559,7.30807 3.35502,13.54853 6.21265,19.10372 1.93863,3.76869 3.05497,5.26917 6.44967,8.66903 4.3668,4.37343 7.35594,6.26397 12.53668,7.92903 5.85029,1.88026 13.39903,2.11848 20.28098,0.64002 z"
       id="path4434"
       inkscape:connector-curvature="0"
       transform="translate(73.218748,183.9403)" /></g><g
     id="layer2"
     transform="translate(-73.218748,-183.9403)"
     inkscape:groupmode="layer"
     sodipodi:insensitive="true"
     style="opacity:1" /><g
     inkscape:groupmode="layer"
     id="layer4"
     inkscape:label="Layer 3"
     style="opacity:1" /><g
     inkscape:groupmode="layer"
     id="layer5"
     inkscape:label="Layer 4"><path
       style="opacity:1;fill:#ffffff;fill-opacity:1"
       d="m 341.74379,199.86331 c 0.33273,0 17.7512,-19.28631 18.30468,-20.26756 0.18683,-0.33121 0.0521,-0.8305 -0.30273,-1.125 -0.50446,-0.41866 -0.87286,-0.27665 -1.75781,0.67773 l -1.11914,1.20703 -1.01563,-1.07031 c -0.55888,-0.58872 -4.124,-4.53947 -7.92187,-8.7793 -3.79787,-4.23983 -11.62146,-12.96979 -17.38672,-19.40039 -5.76527,-6.4306 -11.30399,-12.62848 -12.30664,-13.77148 -1.00266,-1.14301 -4.78785,-5.38278 -8.41211,-9.42383 -3.62426,-4.04104 -6.7308,-7.34766 -6.90234,-7.34766 -0.1122,0 -3.06487,3.18607 -6.79493,7.26563 0.29172,1.27253 -0.49163,2.18278 -1.27734,3.09961 -0.0372,0.36498 -0.0505,0.73387 -0.0937,1.09765 -0.35814,3.01199 -2.50017,3.98857 -3.72656,2.94922 -0.066,0.29748 -0.13631,0.59401 -0.19531,0.89258 -0.38212,0.81975 -0.65152,1.42522 -0.88086,1.93555 0.55925,0.15311 0.7084,0.54347 -0.0918,1.46093 -0.11181,0.12819 -0.30928,0.3554 -0.49024,0.5625 -0.003,0.007 -0.003,0.009 -0.006,0.0156 -0.78237,1.22456 -1.55781,2.18921 -2.64258,3.17187 -0.13087,0.11855 -0.31357,0.17116 -0.44141,0.29297 -0.36494,0.34773 -0.56233,0.84964 -0.99023,1.14258 -0.10841,0.17002 -0.21755,0.32846 -0.3125,0.21875 -0.3343,-0.38627 -0.62322,-0.80592 -0.89844,-1.23633 -0.38057,-0.34546 -0.74752,-0.70416 -1.12109,-1.05664 l -5.95118,6.60742 4.66407,3.3711 c 4.82937,3.49079 41.26748,29.80521 44.08398,31.83594 0.87732,0.63255 4.87805,3.51456 8.88867,6.40428 4.01062,2.88972 7.3788,5.33875 7.48633,5.44336 0.10752,0.10462 -0.23643,0.77642 -0.76563,1.49219 -0.71634,0.96891 -0.83143,1.43419 -0.44726,1.81836 0.2838,0.2838 0.65519,0.51562 0.82422,0.51562 z m -46.4336,-70.11522 c 0.087,-0.0322 0.17697,-0.0765 0.26172,-0.0977 0.0468,-0.0117 -0.10784,-0.0568 -0.14257,-0.0234 -0.0398,0.0383 -0.0785,0.0814 -0.11915,0.12109 z"
       id="path4366"
       inkscape:connector-curvature="0" /><path
       style="opacity:1;fill:#ffffff;fill-opacity:1"
       d="m 374.64027,193.10624 c 0.0955,0.79078 -0.47221,7.67486 -0.75095,9.10628 -0.0976,0.50133 -0.30242,2.14204 -0.45511,3.64602 -0.1527,1.50398 -0.41808,2.87876 -0.58974,3.05507 -0.39619,0.4069 -15.2732,3.55307 -15.53991,3.28636 -0.10906,-0.10906 0.31379,-0.76014 0.93966,-1.44685 0.62586,-0.68671 3.97786,-4.42744 7.44887,-8.31272 8.04126,-9.00101 8.88156,-9.87765 8.94718,-9.33416 z"
       id="path4422-7"
       inkscape:connector-curvature="0" /></g><g
     inkscape:groupmode="layer"
     id="layer6"
     inkscape:label="Layer 5"><path
       style="fill:#ffff00;fill-rule:evenodd;stroke:none;stroke-width:1px;stroke-linecap:butt;stroke-linejoin:miter;stroke-opacity:1"
       d="M 52.650194,208.05054 200.31398,127.83811 a 0.50002463,0.49999838 75.889058 0 0 0.26132,-0.43686 l 0.45575,-90.694703 a 0.50000639,0.49999865 0 0 0 -0.87783,-0.329991 L 52.033683,207.28371 Z M 52.789373,207.93865 200.02428,38.052208 199.5768,127.10054 52.172862,207.17182 Z"
       id="path4503"
       inkscape:path-effect="#path-effect4505"
       inkscape:original-d="M 52.411528,207.61118 200.07531,127.39875 200.53106,36.704021 Z"
       inkscape:connector-curvature="0" /><path
       style="opacity:1;fill:#ffff00;fill-opacity:1"
       d="m 59.012761,201.03069 c 1.753278,-2.04183 25.747523,-29.74064 53.320549,-61.55291 l 50.13276,-57.840493 0.2983,7.340782 c 0.88492,21.776621 7.13162,36.974811 18.32969,44.596051 l 2.67666,1.82169 -1.3094,0.7959 c -2.17214,1.32031 -124.90868,67.88843 -125.805167,68.23244 -0.457144,0.17543 0.60333,-1.35163 2.356608,-3.39346 z"
       id="path4507"
       inkscape:connector-curvature="0" /><path
       style="opacity:1;fill:#ffff00;fill-opacity:1"
       d="m 196.47967,126.59102 c -9.54288,-1.87543 -15.66047,-11.79252 -17.89194,-29.00422 -0.78237,-6.034518 -0.78061,-24.621625 0.003,-30.570459 l 0.61796,-4.691879 10.2631,-11.842661 c 5.6447,-6.513464 10.28627,-11.785308 10.31459,-11.715208 0.0283,0.0701 -0.004,19.969774 -0.0713,44.2215 -0.0963,34.566207 -0.24399,44.083257 -0.68363,44.044107 -0.30846,-0.0275 -1.45671,-0.226 -2.55167,-0.44118 z"
       id="path4509"
       inkscape:connector-curvature="0" /><path
       style="opacity:1;fill:#ffff00;fill-opacity:1"
       d="m 199.50775,119.22041 -0.10215,-7.86173 -0.13702,7.69425 -0.13703,7.69426 -2.05338,-0.28145 c -9.84068,-1.34881 -16.68697,-12.77918 -18.43941,-30.785872 -0.97448,-10.012972 -0.26112,-31.425918 1.11744,-33.542448 0.32653,-0.501328 4.87592,-5.832956 10.10976,-11.848063 l 9.51606,-10.936557 0.23209,35.319311 0.2321,35.319309 0.10972,-35.890499 c 0.0603,-19.739777 0.026,-35.890503 -0.0763,-35.890503 -0.10233,0 -4.64023,5.135443 -10.08422,11.412095 -5.44399,6.276652 -10.00364,11.306625 -10.13255,11.177716 -0.21652,-0.216526 4.16604,-5.407197 15.51354,-18.374101 2.46779,-2.819968 4.81571,-5.127215 5.2176,-5.127215 0.66195,0 0.7024,1.447338 0.42981,15.381644 -0.16549,8.459904 -0.30123,28.66113 -0.30163,44.891613 -4.8e-4,19.36899 -0.15735,29.50997 -0.45648,29.50997 -0.28228,0 -0.49464,-2.99251 -0.5579,-7.86173 z"
       id="path4511"
       inkscape:connector-curvature="0" /><path
       style="opacity:1;fill:#ffff00;fill-opacity:1"
       d="m 180.01254,58.996661 c 0,-1.233115 1.66659,-6.443928 2.93113,-9.164556 3.28269,-7.06266 8.20743,-11.1622 14.72872,-12.260759 1.37024,-0.230826 0.81252,0.522866 -7.47939,10.107439 -10.63636,12.294498 -10.18046,11.787668 -10.18046,11.317876 z"
       id="path4513"
       inkscape:connector-curvature="0" /><path
       style="opacity:1;fill:#ffff00;fill-opacity:1"
       d="m 200.97715,82.190526 0,-44.947463 2.16482,0.287722 c 3.53089,0.469284 8.42591,3.097903 10.77977,5.788723 4.01002,4.584047 6.77203,11.846057 8.32463,21.88752 0.98529,6.372332 1.12886,26.141884 0.23588,32.47908 -2.59731,18.432262 -8.64914,27.547822 -19.34028,29.131262 l -2.16482,0.32062 0,-44.947464 z"
       id="path4515"
       inkscape:connector-curvature="0" /></g><g
     inkscape:groupmode="layer"
     id="layer3"
     inkscape:label="Layer 6"><path
       style="fill:#ffff00;fill-rule:evenodd;stroke:#000000;stroke-width:0.86194378px;stroke-linecap:butt;stroke-linejoin:miter;stroke-opacity:1"
       d="m 358.72085,197.51488 -122.70795,47.2657 2.27236,96.97618 z"
       id="path3430"
       inkscape:connector-curvature="0" /><ellipse
       style="fill:#ffff00"
       id="path3390"
       cx="237.21913"
       cy="293.52051"
       rx="7.5199146"
       ry="47.626125" /></g><rect
     x="-81.18"
     y="235.799"
     fill="none"
     width="70"
     height="177"
     id="rect3461" /><text
     transform="matrix(1 0 0 1 152.8201 136.7991)"
     font-family="'OCRAExtended'"
     font-size="150"
     id="text3463">0</text>
<text
     transform="matrix(1 0 0 1 160.8201 359.7991)"
     fill="#FFFFFF"
     font-family="'OCRAExtended'"
     font-size="150"
     id="text3465">1</text>
</svg>